<?xml version="1.0"?>
<svg xmlns="http://www.w3.org/2000/svg" xmlns:xlink="http://www.w3.org/1999/xlink" xmlns:svgjs="http://svgjs.com/svgjs" version="1.1" width="512" height="512" x="0" y="0" viewBox="0 0 510.919 510.919" style="enable-background:new 0 0 512 512" xml:space="preserve" class=""><g><g xmlns="http://www.w3.org/2000/svg"><path clip-rule="evenodd" d="m338.918 277.186c-22.088 38.257-71.007 51.365-109.263 29.277-89.826-56.389-13.728-188.137 79.987-138.54 38.256 22.088 51.364 71.007 29.276 109.263z" fill="#b2f0fb" fill-rule="evenodd" data-original="#b2f0fb" style="" class=""/><g fill="#020288"><path d="m482.431 292.243c-19.103-42.57-54.356-113.363-67.531-157.525-74.861-212.112-386.384-161.002-389.456 64.203-.001 39.073 11.476 67.468 24.766 100.346 18.646 46.131 39.78 98.417 39.769 201.649-.095 5.362 4.62 10.114 10 10.001h215.965c5.523 0 10-4.478 10-10 0-49.521 7.877-66 54.5-66 74.659 1.997 57.888-48.075 60-101h16.174c20.958.325 35.446-23.022 25.813-41.674zm-18.341 17.418c-.789 1.28-3.095 4.257-7.479 4.257h-26.167c-5.523 0-10 4.478-10 10v56c0 20.025-3.86 25.897-7.223 28.776-5.096 4.362-14.898 6.224-32.777 6.224-55.204-.669-74.073 26.551-74.375 76h-196.157c-1.363-100.679-23.368-155.128-41.16-199.146-13.023-32.218-23.309-57.666-23.309-92.854 2.795-202.656 283.108-248.721 350.514-57.781 13.122 44.163 49.079 116.714 68.368 159.603 2.097 3.729.667 7.722-.235 8.921z" fill="#378ce4" data-original="#020288" style="" class=""/><path d="m225.444 74.847c-47.831-.051-86.666 39.487-85.77 87.305-77.297 43.589-45.765 160.72 41.711 160.806 47.125.93 87.402-41.371 85.609-87.297 76.37-42.57 47.085-160.156-41.55-160.814zm-11.313 219.317c-30.873 17.977-71.625 7.61-89.861-24.079-17.031-29.498-8.544-66.842 18.565-86.304 11.278 43.241 59.28 72.092 103.837 59.974-2.067 20.333-13.529 39.432-32.541 50.409zm-52.988-119.617c35.596-12.012 76.759 10.916 84.396 48.727-36.208 12.367-77.288-12.064-84.396-48.727zm102.699 39.468c-11.788-44.65-60.766-71.789-103.857-59.939 3.3-33.207 31.398-59.228 65.459-59.228 63.874.184 89.616 82.484 38.398 119.167z" fill="#378ce4" data-original="#020288" style="" class=""/></g></g></g></svg>
